/* XPM */
static char * title_4_inactive_xpm[] = {
"20 20 59 1",
" 	c None",
".	c #303030",
"+	c #181818",
"@	c #000000",
"#	c #111111",
"$	c #1A1A1A",
"%	c #191919",
"&	c #191A19",
"*	c #1A1919",
"=	c #181718",
"-	c #171718",
";	c #171717",
">	c #171818",
",	c #171716",
"'	c #161717",
")	c #161716",
"!	c #171617",
"~	c #171616",
"{	c #161617",
"]	c #161616",
"^	c #151515",
"/	c #151616",
"(	c #151615",
"_	c #161515",
":	c #161516",
"<	c #151516",
"[	c #141514",
"}	c #141415",
"|	c #151514",
"1	c #151414",
"2	c #141414",
"3	c #141515",
"4	c #151415",
"5	c #131313",
"6	c #121211",
"7	c #121212",
"8	c #111212",
"9	c #121112",
"0	c #111112",
"a	c #101111",
"b	c #101011",
"c	c #111110",
"d	c #101010",
"e	c #101110",
"f	c #111011",
"g	c #111010",
"h	c #0F0F0F",
"i	c #100F0F",
"j	c #0F0F10",
"k	c #0F1010",
"l	c #100F10",
"m	c #0F0E0E",
"n	c #0E0E0E",
"o	c #0E0E0F",
"p	c #0E0F0E",
"q	c #0D0D0D",
"r	c #0D0C0D",
"s	c #0D0D0C",
"t	c #454545",
"....................",
"++++++++++++++++++++",
"++++++++++++++++++++",
"++++++++++++++++++++",
"@@@@@@@@@@@@@@@@@@@@",
"####################",
"$$$$$$$$$$$$$$$$$$$$",
"%%%%%%%%&%%%%&%%%*%%",
"=+-;+>>+>+++>>=+>+++",
",,''),!~{',~],);{!{'",
"]^/(_/__^:<^:(:__(//",
"[}||122}|2[34222[}22",
"55555555555555555555",
"67897807798688778867",
"##aabcad##efcgfegafe",
"hijjjhhjidklkhhjhkhi",
"mmnonnpnnnmnnnonpnnn",
"qqqqqqqqrqqqqqrqrssq",
"@@@@@@@@@@@@@@@@@@@@",
"tttttttttttttttttttt"};
