/* XPM */
static char * top_right_active_shaded_xpm[] = {
"80 20 46 1",
" 	c None",
".	c #303030",
"+	c #181818",
"@	c #000000",
"#	c #282828",
"$	c #111111",
"%	c #141414",
"&	c #191919",
"*	c #19191A",
"=	c #1A1919",
"-	c #171717",
";	c #171716",
">	c #161717",
",	c #161616",
"'	c #161615",
")	c #151516",
"!	c #151616",
"~	c #151414",
"{	c #141514",
"]	c #151415",
"^	c #141415",
"/	c #151515",
"(	c #131314",
"_	c #131414",
":	c #141314",
"<	c #141413",
"[	c #121213",
"}	c #131212",
"|	c #121212",
"1	c #121313",
"2	c #131213",
"3	c #111112",
"4	c #121112",
"5	c #101010",
"6	c #111010",
"7	c #0F0F0F",
"8	c #0E0E0E",
"9	c #0D0E0E",
"0	c #0E0D0D",
"a	c #0C0C0C",
"b	c #0D0D0D",
"c	c #0D0D0C",
"d	c #0C0D0D",
"e	c #0D0C0D",
"f	c #454545",
"g	c #373737",
"...........................................................................     ",
"+++++++++++++++++++++++++++++++++++++++++++++++++++++++++++++++++++++++++++..   ",
"+++++++++++++++++++++++++++++++++++++++++++++++++++++++++++++++++++++++++++++.  ",
"++++++++++++++++++++++++++++++++++++++++++++++++++++++++++++++++++++++++++++++. ",
"@@@@@@++++++++++++++++++++++++++++++++++++++++++++++++++++++++++++++++++++++++# ",
"$$$$$%@++++++++++++++++++++++++++++++++++++++++++++++++++++++++++++++++++++++++#",
"&*==&&%@++++++++++++++++++++++++++++++++++++++++++++++++++++++++++++++++++++++++",
"+++++++@++++++++++++++++++++++++++++++++++++++++++++++++++++++++++++++++++++++++",
"-----;>@++++++++++++++++++++++++++++++++++++++++++++++++++++++++++++++++++++++++",
",,'',)!@++++++++++++++++++++++++++++++++++++++++++++++++++++++++++++++++++++++++",
"~{~]^/]@++++++++++++++++++++++++++++++++++++++++++++++++++++++++++++++++++++++++",
"(_:_(<(@++++++++++++++++++++++++++++++++++++++++++++++++++++++++++++++++++++++++",
"[}||12|@++++++++++++++++++++++++++++++++++++++++++++++++++++++++++++++++++++++++",
"3$34$$$@++++++++++++++++++++++++++++++++++++++++++++++++++++++++++++++++++++++++",
"5555565@++++++++++++++++++++++++++++++++++++++++++++++++++++++++++++++++++++++++",
"7777777@++++++++++++++++++++++++++++++++++++++++++++++++++++++++++++++++++++++++",
"8980880@++++++++++++++++++++++++++++++++++++++++++++++++++++++++++++++++++++++++",
"abcdae@.++++++++++++++++++++++++++++++++++++++++++++++++++++++++++++++++++++++++",
"@@@@@@.+++++++++++++++++++++++++++++++++++++++++++++++++++++++++++++++++++++++++",
"ffffgg++++++++++++++++++++++++++++++++++++++++++++++++++++++++++++++++++++++++++"};
