/* XPM */
static char * top_left_active_shaded_xpm[] = {
"30 20 46 1",
" 	c None",
".	c #303030",
"+	c #181818",
"@	c #282828",
"#	c #000000",
"$	c #141414",
"%	c #111111",
"&	c #191919",
"*	c #1A1919",
"=	c #19191A",
"-	c #161717",
";	c #171716",
">	c #171717",
",	c #151616",
"'	c #151516",
")	c #161616",
"!	c #161615",
"~	c #151415",
"{	c #151515",
"]	c #141415",
"^	c #151414",
"/	c #141514",
"(	c #131314",
"_	c #141413",
":	c #131414",
"<	c #141314",
"[	c #121212",
"}	c #131213",
"|	c #121313",
"1	c #131212",
"2	c #121213",
"3	c #121112",
"4	c #111112",
"5	c #101010",
"6	c #111010",
"7	c #0F0F0F",
"8	c #0E0D0D",
"9	c #0E0E0E",
"0	c #0D0E0E",
"a	c #0D0C0D",
"b	c #0C0C0C",
"c	c #0C0D0D",
"d	c #0D0D0C",
"e	c #0D0D0D",
"f	c #373737",
"g	c #454545",
"     .........................",
"   ..+++++++++++++++++++++++++",
"  .+++++++++++++++++++++++++++",
" .++++++++++++++++++++++++++++",
" @++++++++++++++++++++++######",
"@++++++++++++++++++++++#$%%%%%",
"++++++++++++++++++++++#$&&**=&",
"++++++++++++++++++++++#+++++++",
"++++++++++++++++++++++#-;>>>>>",
"++++++++++++++++++++++#,')!!))",
"++++++++++++++++++++++#~{]~^/^",
"++++++++++++++++++++++#(_(:<:(",
"++++++++++++++++++++++#[}|[[12",
"++++++++++++++++++++++#%%%34%4",
"++++++++++++++++++++++#5655555",
"++++++++++++++++++++++#7777777",
"++++++++++++++++++++++#8998909",
"++++++++++++++++++++++.#abcdeb",
"+++++++++++++++++++++++.######",
"++++++++++++++++++++++++ffgggg"};
