/* XPM */
static char * bottom_right_active_xpm[] = {
"5 5 3 1",
" 	c None",
".	c #4FFEC3",
"+	c #41D1A0",
"..+  ",
"..+  ",
"+++  ",
"     ",
"     "};
