/* XPM */
static char * bottom_left_active_xpm[] = {
"5 5 4 1",
" 	c None",
".	c #85FFD5",
"+	c #4FFEC3",
"@	c #41D1A0",
"  .++",
"  .++",
"  .@@",
"     ",
"     "};
