/* XPM */
static char * close_pressed_xpm[] = {
"29 14 6 1",
" 	c #4FFEC3",
".	c #106A47",
"+	c #000000",
"@	c #1AAD74",
"#	c #41D1A0",
"$	c #89FED7",
"                             ",
"                             ",
"                             ",
".   ++++++++++++++++++++++++ ",
"@   +######################+ ",
"@   +#                    $+ ",
"@   +#                    $+ ",
"@   +#                    $+ ",
"@   +#                    $+ ",
"@   +#                    $+ ",
"@   +#                    $+ ",
"@   +#                    $+ ",
"@   +#$$$$$$$$$$$$$$$$$$$$$+ ",
"@   ++++++++++++++++++++++++ "};
