/* XPM */
static char * maximize_active_xpm[] = {
"17 14 8 1",
" 	c #4FFEC3",
".	c #50FFC5",
"+	c #000000",
"@	c #106A47",
"#	c #010504",
"$	c #89FED7",
"%	c #41D1A0",
"&	c #50FFC7",
"                 ",
"                 ",
"                 ",
".++++++++++++   @",
".#$$$$$$$$$%+   @",
".#$        %+   @",
".#$        %+   @",
".#$        %+   @",
".#$        %+   @",
".#$&       %+   @",
".#$&       %+   @",
".#$&       %+   @",
".#%%%%%%%%%%+   @",
".#+++++++++++   @"};
