/* XPM */
static char * maximize_pressed_xpm[] = {
"16 14 7 1",
" 	c #4FFEC3",
".	c #50FFC5",
"+	c #000000",
"@	c #010504",
"#	c #41D1A0",
"$	c #89FED7",
"%	c #50FFC7",
"                ",
"                ",
"                ",
".++++++++++++   ",
".@#########$+   ",
".@#        $+   ",
".@#        $+   ",
".@#        $+   ",
".@#        $+   ",
".@#%       $+   ",
".@#%       $+   ",
".@#%       $+   ",
".@$$$$$$$$$$+   ",
".@+++++++++++   "};
