/* XPM */
static char * menu_pressed_xpm[] = {
"14 14 8 1",
" 	c None",
".	c #4FFEC3",
"+	c #50FFC5",
"@	c #000000",
"#	c #010504",
"$	c #41D1A0",
"%	c #89FED7",
"&	c #50FFC7",
"..............",
"+@@@@@@@@@@@@.",
"+#$$$$$$$$$$@.",
"+#$........%@.",
"+#$........%@.",
"+@$........%@.",
"+@$........%@.",
"+#$&.......%@.",
"+#$&.......%@.",
"+#$&.......%@.",
"+#$%%%%%%%%%@.",
"+#@@@@@@@@@@@.",
"+.............",
".............."};
