/* XPM */
static char * title_2_inactive_xpm[] = {
"18 23 8 1",
" 	c None",
".	c #85FFD5",
"+	c #4FFEC3",
"@	c #000000",
"#	c #106A47",
"$	c #1AAD74",
"%	c #158D5F",
"&	c #41D1A0",
"                  ",
"                  ",
"                  ",
"                  ",
"..................",
"++++++++++++++++++",
"++++++++++@@@@++++",
"++++++++++++@@++++",
"####$+++++++@@++++",
"%%%%$+++++++@@++++",
"%%%%$+++++++@@++++",
"%%%%$+++++++@@++++",
"%%%%$+++++++@@++++",
"%%%%$+++++++@@++++",
"%%%%$+++++++@@++++",
"%%%%$+++++++@@++++",
"%%%%$+++++++@@++++",
"%%%%$+++++++@@++++",
"$$$$$+++++++@@++++",
"++++++++++++@@++++",
"++++++++++@@@@++++",
"++++++++++++++++++",
"&&&&&&&&&&&&&&&&&&"};
